<?xml version="1.0" encoding="UTF-8" standalone="no"?>
<svg
   height="16px"
   viewBox="0 0 16 16"
   width="16px"
   version="1.1"
   id="svg4"
   sodipodi:docname="im.bernard.Memorado-symbolic.svg"
   inkscape:version="1.4 (e7c3feb100, 2024-10-09)"
   xmlns:inkscape="http://www.inkscape.org/namespaces/inkscape"
   xmlns:sodipodi="http://sodipodi.sourceforge.net/DTD/sodipodi-0.dtd"
   xmlns="http://www.w3.org/2000/svg"
   xmlns:svg="http://www.w3.org/2000/svg">
  <defs
     id="defs4" />
  <sodipodi:namedview
     id="namedview4"
     pagecolor="#ffffff"
     bordercolor="#000000"
     borderopacity="0.25"
     inkscape:showpageshadow="2"
     inkscape:pageopacity="0.0"
     inkscape:pagecheckerboard="0"
     inkscape:deskcolor="#d1d1d1"
     inkscape:zoom="50"
     inkscape:cx="8"
     inkscape:cy="8"
     inkscape:window-width="1920"
     inkscape:window-height="1011"
     inkscape:window-x="0"
     inkscape:window-y="0"
     inkscape:window-maximized="1"
     inkscape:current-layer="svg4" />
  <g
     fill="#241f31"
     id="g4">
    <path
       d="m 2 5 c -1.109375 0 -2 0.890625 -2 2 v 7 c 0 1.109375 0.890625 2 2 2 h 9 c 1.109375 0 2 -0.890625 2 -2 h -1.980469 c -1.074219 0.035156 -1.984375 -0.8125 -2.019531 -1.882812 l 1 -0.035157 c 0.019531 0.53125 0.453125 0.9375 0.980469 0.917969 h 0.019531 h 2 v -1 h 2.148438 c 0.21875 0 0.421874 -0.128906 0.542968 -0.34375 c 0.125 -0.214844 0.15625 -0.488281 0.082032 -0.730469 l -1.449219 -4.851562 c -0.195313 -0.644531 -0.703125 -1.074219 -1.273438 -1.074219 h -1.050781 v 2 c 0 1.109375 -0.890625 2 -2 2 h -6 c -1.109375 0 -2 -0.890625 -2 -2 z m 0 0"
       id="path1"
       style="fill:#222222;fill-opacity:1" />
    <path
       d="m 7 5 c 0 1.105469 -0.894531 2 -2 2 s -2 -0.894531 -2 -2 s 0.894531 -2 2 -2 s 2 0.894531 2 2 z m 0 0"
       id="path2"
       style="fill:#222222;fill-opacity:1" />
    <path
       d="m 11 8 v -5 l -5 5 z m 0 0"
       id="path3"
       style="fill:#222222;fill-opacity:1" />
    <path
       d="m 7 0 h 3 v 3 h -3 z m 0 0"
       id="path4"
       style="fill:#222222;fill-opacity:1" />
  </g>
</svg>
