<?xml version="1.0" encoding="UTF-8"?>
<svg height="16px" viewBox="0 0 16 16" width="16px" xmlns="http://www.w3.org/2000/svg" xmlns:xlink="http://www.w3.org/1999/xlink">
    <filter id="a" height="100%" width="100%" x="0%" y="0%">
        <feColorMatrix color-interpolation-filters="sRGB" values="0 0 0 0 1 0 0 0 0 1 0 0 0 0 1 0 0 0 1 0"/>
    </filter>
    <mask id="b">
        <g filter="url(#a)">
            <rect fill-opacity="0.1" height="19.2" width="19.2" x="-1.6" y="-1.6"/>
        </g>
    </mask>
    <linearGradient id="c" gradientUnits="userSpaceOnUse">
        <stop offset="0" stop-opacity="0"/>
        <stop offset="0.2"/>
        <stop offset="0.8" stop-opacity="0.94902"/>
        <stop offset="1" stop-opacity="0"/>
    </linearGradient>
    <linearGradient id="d" gradientTransform="matrix(1.372549 0 0 1 -19.697144 -154.000336)" x1="42" x2="93" xlink:href="#c" y1="273" y2="273"/>
    <clipPath id="e">
        <rect height="152" width="192"/>
    </clipPath>
    <mask id="f">
        <g filter="url(#a)">
            <rect fill-opacity="0.1" height="19.2" width="19.2" x="-1.6" y="-1.6"/>
        </g>
    </mask>
    <linearGradient id="g" gradientTransform="matrix(1.45098 0 0 1 -26.991211 -150.000336)" x1="42" x2="93" xlink:href="#c" y1="273" y2="273"/>
    <clipPath id="h">
        <rect height="152" width="192"/>
    </clipPath>
    <mask id="i">
        <g filter="url(#a)">
            <rect fill-opacity="0.1" height="19.2" width="19.2" x="-1.6" y="-1.6"/>
        </g>
    </mask>
    <linearGradient id="j" gradientTransform="matrix(1.176471 0 0 1 -1.461792 -146.000336)" x1="42" x2="93" xlink:href="#c" y1="273" y2="273"/>
    <clipPath id="k">
        <rect height="152" width="192"/>
    </clipPath>
    <mask id="l">
        <g filter="url(#a)">
            <rect fill-opacity="0.1" height="19.2" width="19.2" x="-1.6" y="-1.6"/>
        </g>
    </mask>
    <linearGradient id="m" gradientTransform="matrix(0.745098 0 0 1 18.655823 -158.000336)" x1="42" x2="93" xlink:href="#c" y1="273" y2="273"/>
    <clipPath id="n">
        <rect height="152" width="192"/>
    </clipPath>
    <g mask="url(#b)">
        <g clip-path="url(#e)" transform="matrix(1 0 0 1 -168 -16)">
            <path d="m 37.949219 118 h 70 v 2 h -70 z m 0 0" fill="url(#d)"/>
        </g>
    </g>
    <g mask="url(#f)">
        <g clip-path="url(#h)" transform="matrix(1 0 0 1 -168 -16)">
            <path d="m 33.949219 122 h 74 v 2 h -74 z m 0 0" fill="url(#g)"/>
        </g>
    </g>
    <g mask="url(#i)">
        <g clip-path="url(#k)" transform="matrix(1 0 0 1 -168 -16)">
            <path d="m 47.949219 126 h 60 v 2 h -60 z m 0 0" fill="url(#j)"/>
        </g>
    </g>
    <g mask="url(#l)">
        <g clip-path="url(#n)" transform="matrix(1 0 0 1 -168 -16)">
            <path d="m 49.949219 114 h 38 v 2 h -38 z m 0 0" fill="url(#m)"/>
        </g>
    </g>
    <g fill="#241f31">
        <path d="m 11.226562 11.46875 h -7.125 l -3.101562 1.273438 l 3.101562 1.269531 h 7.125 z m 0.945313 0.003906 v 2.539063 h 2.152344 c 0.375 0 0.675781 -0.203125 0.675781 -0.460938 v -1.613281 c 0 -0.128906 -0.074219 -0.242188 -0.195312 -0.328125 c -0.125 -0.082031 -0.292969 -0.132813 -0.480469 -0.132813 z m 0 0" fill-rule="evenodd"/>
        <path d="m 4.101562 1.660156 h 1.789063 l 3.117187 8.324219 h -1.726562 l -0.695312 -1.988281 h -3.171876 l -0.683593 1.988281 h -1.726563 z m 1.976563 4.890625 l -0.730469 -2.089843 l -0.296875 -1 h -0.101562 l -0.296875 1 l -0.742188 2.089843 z m 5.640625 3.625 c -0.628906 0 -1.140625 -0.1875 -1.539062 -0.558593 c -0.394532 -0.367188 -0.59375 -0.847657 -0.59375 -1.445313 c 0 -0.398437 0.101562 -0.746094 0.308593 -1.042969 c 0.203125 -0.304687 0.488281 -0.535156 0.851563 -0.699218 c 0.359375 -0.164063 0.761718 -0.246094 1.203125 -0.246094 c 0.609375 0 1.128906 0.089844 1.558593 0.265625 v -0.253907 c 0 -0.324218 -0.121093 -0.589843 -0.363281 -0.789062 c -0.246093 -0.199219 -0.570312 -0.300781 -0.972656 -0.300781 c -0.28125 0 -0.550781 0.0625 -0.808594 0.1875 c -0.257812 0.128906 -0.472656 0.296875 -0.640625 0.5 l -0.972656 -0.765625 c 0.289062 -0.367188 0.644531 -0.65625 1.074219 -0.855469 c 0.433593 -0.199219 0.90625 -0.300781 1.414062 -0.300781 c 0.90625 0 1.589844 0.210937 2.054688 0.632812 c 0.46875 0.417969 0.707031 1.03125 0.707031 1.835938 v 3.644531 h -1.492188 v -0.597656 h -0.089843 c -0.175781 0.230469 -0.414063 0.417969 -0.707031 0.566406 c -0.285157 0.144531 -0.617188 0.222656 -0.992188 0.222656 z m 0.363281 -1.191406 c 0.433594 0 0.78125 -0.136719 1.039063 -0.421875 c 0.257812 -0.28125 0.386718 -0.613281 0.386718 -1 c -0.390624 -0.183594 -0.804687 -0.277344 -1.238281 -0.277344 c -0.78125 0 -1.171875 0.296875 -1.171875 0.886719 c 0 0.242187 0.082032 0.433594 0.253906 0.589844 c 0.167969 0.152343 0.414063 0.222656 0.730469 0.222656 z m -11.253906 -10.207031"/>
    </g>
</svg>
