<?xml version="1.0" encoding="UTF-8"?>
<svg height="16px" viewBox="0 0 16 16" width="16px" xmlns="http://www.w3.org/2000/svg" xmlns:xlink="http://www.w3.org/1999/xlink">
    <filter id="a" height="100%" width="100%" x="0%" y="0%">
        <feColorMatrix color-interpolation-filters="sRGB" values="0 0 0 0 1 0 0 0 0 1 0 0 0 0 1 0 0 0 1 0"/>
    </filter>
    <mask id="b">
        <g filter="url(#a)">
            <rect fill-opacity="0.1" height="19.2" width="19.2" x="-1.6" y="-1.6"/>
        </g>
    </mask>
    <linearGradient id="c" gradientUnits="userSpaceOnUse">
        <stop offset="0" stop-opacity="0"/>
        <stop offset="0.2"/>
        <stop offset="0.8" stop-opacity="0.94902"/>
        <stop offset="1" stop-opacity="0"/>
    </linearGradient>
    <linearGradient id="d" gradientTransform="matrix(1.372549 0 0 1 -19.697144 -154.000336)" x1="42" x2="93" xlink:href="#c" y1="273" y2="273"/>
    <clipPath id="e">
        <rect height="152" width="192"/>
    </clipPath>
    <mask id="f">
        <g filter="url(#a)">
            <rect fill-opacity="0.1" height="19.2" width="19.2" x="-1.6" y="-1.6"/>
        </g>
    </mask>
    <linearGradient id="g" gradientTransform="matrix(1.45098 0 0 1 -26.991211 -150.000336)" x1="42" x2="93" xlink:href="#c" y1="273" y2="273"/>
    <clipPath id="h">
        <rect height="152" width="192"/>
    </clipPath>
    <mask id="i">
        <g filter="url(#a)">
            <rect fill-opacity="0.1" height="19.2" width="19.2" x="-1.6" y="-1.6"/>
        </g>
    </mask>
    <linearGradient id="j" gradientTransform="matrix(1.176471 0 0 1 -1.461792 -146.000336)" x1="42" x2="93" xlink:href="#c" y1="273" y2="273"/>
    <clipPath id="k">
        <rect height="152" width="192"/>
    </clipPath>
    <mask id="l">
        <g filter="url(#a)">
            <rect fill-opacity="0.1" height="19.2" width="19.2" x="-1.6" y="-1.6"/>
        </g>
    </mask>
    <linearGradient id="m" gradientTransform="matrix(0.745098 0 0 1 18.655823 -158.000336)" x1="42" x2="93" xlink:href="#c" y1="273" y2="273"/>
    <clipPath id="n">
        <rect height="152" width="192"/>
    </clipPath>
    <g mask="url(#b)">
        <g clip-path="url(#e)" transform="matrix(1 0 0 1 -168 -16)">
            <path d="m 37.949219 118 h 70 v 2 h -70 z m 0 0" fill="url(#d)"/>
        </g>
    </g>
    <g mask="url(#f)">
        <g clip-path="url(#h)" transform="matrix(1 0 0 1 -168 -16)">
            <path d="m 33.949219 122 h 74 v 2 h -74 z m 0 0" fill="url(#g)"/>
        </g>
    </g>
    <g mask="url(#i)">
        <g clip-path="url(#k)" transform="matrix(1 0 0 1 -168 -16)">
            <path d="m 47.949219 126 h 60 v 2 h -60 z m 0 0" fill="url(#j)"/>
        </g>
    </g>
    <g mask="url(#l)">
        <g clip-path="url(#n)" transform="matrix(1 0 0 1 -168 -16)">
            <path d="m 49.949219 114 h 38 v 2 h -38 z m 0 0" fill="url(#m)"/>
        </g>
    </g>
    <g fill="#241f31">
        <path d="m 11.472656 11.570312 h -7.664062 l -3.34375 1.375 l 3.339844 1.3125 l 7.667968 -0.019531 z m 1.015625 0.007813 v 2.714844 h 2.316407 c 0.402343 0 0.726562 -0.222657 0.730468 -0.496094 l -0.003906 -1.726563 c 0 -0.136718 -0.078125 -0.257812 -0.210938 -0.347656 c -0.132812 -0.089844 -0.3125 -0.144531 -0.515624 -0.144531 z m 0 0" fill-rule="evenodd"/>
        <path d="m 3.894531 1.546875 h 1.882813 l 3.28125 8.710937 h -1.816406 l -0.730469 -2.082031 h -3.339844 l -0.722656 2.082031 h -1.8125 z m 2.082031 5.117187 l -0.769531 -2.1875 l -0.3125 -1.046874 h -0.105469 l -0.3125 1.046874 l -0.78125 2.1875 z m 5.933594 3.792969 c -0.660156 0 -1.195312 -0.195312 -1.617187 -0.582031 c -0.417969 -0.386719 -0.625 -0.890625 -0.625 -1.511719 c 0 -0.417969 0.105469 -0.785156 0.324219 -1.09375 c 0.214843 -0.316406 0.515624 -0.5625 0.894531 -0.734375 c 0.378906 -0.167968 0.804687 -0.253906 1.269531 -0.253906 c 0.640625 0 1.1875 0.089844 1.640625 0.277344 v -0.265625 c 0 -0.339844 -0.128906 -0.617188 -0.382813 -0.828125 c -0.257812 -0.207032 -0.601562 -0.3125 -1.023437 -0.3125 c -0.296875 0 -0.582031 0.066406 -0.851563 0.195312 c -0.273437 0.136719 -0.496093 0.308594 -0.675781 0.523438 l -1.023437 -0.800782 c 0.304687 -0.386718 0.679687 -0.6875 1.128906 -0.894531 c 0.457031 -0.210937 0.953125 -0.316406 1.488281 -0.316406 c 0.957031 0 1.675781 0.222656 2.164063 0.664063 c 0.496094 0.4375 0.746094 1.074218 0.746094 1.917968 v 3.816406 h -1.570313 v -0.628906 h -0.09375 c -0.1875 0.242188 -0.4375 0.441406 -0.746094 0.59375 c -0.300781 0.15625 -0.648437 0.234375 -1.046875 0.234375 z m 0.386719 -1.246093 c 0.457031 0 0.820313 -0.144532 1.09375 -0.441407 c 0.269531 -0.292969 0.40625 -0.644531 0.40625 -1.046875 c -0.414063 -0.191406 -0.847656 -0.292968 -1.304687 -0.292968 c -0.820313 0 -1.230469 0.3125 -1.230469 0.933593 c 0 0.25 0.085937 0.453125 0.265625 0.617188 c 0.179687 0.15625 0.433594 0.230469 0.769531 0.230469 z m -11.847656 -10.683594"/>
    </g>
</svg>
