<?xml version="1.0" encoding="UTF-8"?>
<svg height="16px" viewBox="0 0 16 16" width="16px" xmlns="http://www.w3.org/2000/svg">
    <g fill="#241f31">
        <path d="m 7.328125 5.101562 c 0.109375 0.339844 0.167969 0.695313 0.175781 1.054688 c 0 1.988281 -1.613281 3.597656 -3.601562 3.597656 c -0.433594 0 -0.863282 -0.082031 -1.265625 -0.238281 v 2.707031 c 0 0.871094 0.703125 1.578125 1.574219 1.578125 h 10.214843 c 0.867188 0 1.574219 -0.707031 1.574219 -1.578125 v -5.550781 c 0 -0.867187 -0.707031 -1.570313 -1.574219 -1.570313 z m 3.25 1.179688 h 1.808594 c 0.75 0 1.359375 0.609375 1.359375 1.359375 v 3.421875 c -0.019532 0.855469 -0.726563 1.558594 -1.585938 1.558594 c -0.871094 0 -1.582031 -0.714844 -1.582031 -1.585938 s 0.710937 -1.585937 1.582031 -1.585937 c 0.238282 0 0.472656 0.0625 0.679688 0.15625 v -1.710938 c 0 -0.140625 -0.117188 -0.253906 -0.257813 -0.253906 h -2.203125 c -0.140625 0 -0.257812 0.113281 -0.257812 0.253906 v 3.152344 c -0.007813 0.863281 -0.71875 1.574219 -1.582032 1.574219 c -0.871093 0 -1.585937 -0.714844 -1.585937 -1.585938 s 0.714844 -1.585937 1.585937 -1.585937 c 0.242188 0 0.476563 0.0625 0.679688 0.15625 v -1.964844 c 0 -0.75 0.609375 -1.359375 1.359375 -1.359375 z m 0 0"/>
        <path d="m 1.414062 2.214844 c -0.097656 0 -0.195312 0.035156 -0.269531 0.109375 l -1.03125 1.03125 c -0.1523435 0.148437 -0.1523435 0.390625 0 0.542969 l 0.765625 0.765624 c -0.257812 0.503907 -0.394531 1.0625 -0.398437 1.628907 c 0 1.988281 1.613281 3.601562 3.601562 3.601562 s 3.597657 -1.613281 3.597657 -3.601562 s -1.609376 -3.601563 -3.597657 -3.601563 c -0.566406 0.003906 -1.125 0.140625 -1.628906 0.398438 l -0.765625 -0.765625 c -0.078125 -0.074219 -0.175781 -0.109375 -0.273438 -0.109375 z m 2.667969 1.4375 c 1.457031 0 2.640625 1.183594 2.640625 2.640625 s -1.183594 2.640625 -2.640625 2.640625 c -1.460937 0 -2.640625 -1.183594 -2.640625 -2.640625 s 1.179688 -2.640625 2.640625 -2.640625 z m 0.941407 0.738281 c -0.078126 0.007813 -0.152344 0.050781 -0.191407 0.121094 l -0.621093 1.074219 c -0.042969 -0.007813 -0.085938 -0.011719 -0.128907 -0.011719 c -0.398437 0 -0.722656 0.320312 -0.722656 0.71875 c 0 0.398437 0.324219 0.722656 0.722656 0.722656 c 0.398438 0 0.71875 -0.324219 0.71875 -0.722656 c 0 -0.171875 -0.0625 -0.335938 -0.175781 -0.46875 l 0.621094 -1.070313 c 0.066406 -0.117187 0.027344 -0.265625 -0.085938 -0.332031 c -0.042968 -0.023437 -0.089844 -0.035156 -0.136718 -0.03125 z m 0 0"/>
    </g>
</svg>
